<svg width="767" height="126" viewBox="0 0 767 126" fill="none" xmlns="http://www.w3.org/2000/svg">
<path d="M0 3.33965L42.5676 3.72346L76.4956 3.33852C91.4663 3.33852 98.6201 4.49449 106.598 7.80536C117.247 12.3485 124.232 22.6672 124.232 33.6021C124.232 38.9152 122.73 44.0745 119.904 48.3865C115.415 55.0868 111.256 57.704 100.445 60.245C113.42 63.7107 118.41 66.7141 123.731 73.1821C127.058 77.1865 129.052 83.347 129.052 89.1988C129.052 100.672 121.737 111.762 111.095 116.767C102.278 120.925 90.9658 122.928 76.3351 122.928C72.1769 122.928 60.2028 122.773 40.2422 122.619C31.2636 122.388 17.9572 122.619 0 122.927V95.2829L9.81027 95.6679V30.4438L0 30.8299L0 3.33965ZM55.544 51.9286H61.8661C68.8503 51.9286 69.1814 51.9285 72.0074 50.7737C73.3396 50.2349 74.5024 49.6188 75.5035 48.3865C77.4978 46.2316 78.4911 43.3046 78.4911 40.1475C78.4911 32.7547 74.0018 29.1352 65.1915 29.1352H64.5226L59.5327 29.2901L55.544 29.1352V51.9286ZM55.544 96.8216H58.7011C65.0232 96.8216 68.5192 96.669 71.3452 95.9754C76.3351 94.6668 79.8233 90.1999 79.8233 84.6556C79.8233 80.6511 77.9984 77.0328 75.0029 75.0305C72.0063 73.3358 69.1814 72.7197 60.0333 72.7197H55.544V96.8216ZM130.715 95.2829L140.695 95.6679V30.4438L130.715 30.8288V3.33739L165.137 3.72234L206.881 3.33739C226.671 3.33739 234.656 5.18587 243.974 11.6538C252.452 17.5068 257.442 27.6717 257.442 38.4516C257.442 42.6099 256.78 46.923 255.116 50.6177C252.121 58.5503 248.956 61.7074 239.646 67.0205L256.941 95.6668L264.927 95.2818V122.926C255.117 122.772 247.793 122.618 242.803 122.618C237.813 122.618 230.336 122.772 220.187 122.926L198.564 74.3381H186.259V95.669L195.738 95.284V122.928C181.77 122.774 171.296 122.621 164.304 122.621C156.827 122.621 145.685 122.774 130.715 122.928V95.2829ZM186.428 52.391H194.907C204.725 52.391 209.545 48.3865 209.545 40.6088C209.545 33.2934 205.056 29.5976 195.577 29.5976H186.429L186.428 52.391ZM272.404 95.2829L281.721 95.6679L300.349 30.445L290.369 30.8299V3.33852C309.99 3.4934 324.459 3.72346 334.439 3.72346C345.25 3.72346 361.383 3.4934 383.006 3.33852V30.8299L372.856 30.445L391.815 95.6679L401.132 95.2829V122.927C387.496 122.773 377.346 122.619 370.531 122.619C363.377 122.619 352.566 122.773 338.266 122.927V95.2829L347.915 95.6679L345.25 83.8083H313.987L310.99 95.6679L320.802 95.2829V122.927C309.829 122.773 301.674 122.619 296.353 122.619C290.869 122.619 283.053 122.773 272.404 122.927V95.2829ZM318.977 65.4043H339.929L332.114 36.6054L330.612 30.1363L329.449 23.9759C327.955 31.7536 327.624 33.6021 327.124 35.6032L318.977 65.4043ZM407.315 3.33965L449.892 3.72346L483.82 3.33852C498.783 3.33852 505.936 4.49449 513.921 7.80536C524.564 12.3485 531.548 22.6672 531.548 33.6021C531.548 38.9152 530.054 44.0745 527.22 48.3865C522.731 55.0868 518.573 57.704 507.769 60.245C520.736 63.7107 525.726 66.7141 531.046 73.1821C534.374 77.1865 536.368 83.347 536.368 89.1988C536.368 100.672 529.053 111.762 518.411 116.767C509.594 120.925 498.29 122.928 483.65 122.928C479.492 122.928 467.518 122.773 447.558 122.619C438.58 122.388 425.274 122.619 407.316 122.927V95.2829L417.127 95.6679V30.4438L407.316 30.8288L407.315 3.33965ZM462.859 51.9286H469.181C476.165 51.9286 476.497 51.9285 479.324 50.7737C480.655 50.2349 481.819 49.6188 482.819 48.3865C484.814 46.2316 485.815 43.3046 485.815 40.1475C485.815 32.7547 481.326 29.1352 472.508 29.1352H471.846L466.856 29.2901L462.86 29.1352L462.859 51.9286ZM462.859 96.8216H466.024C472.338 96.8216 475.834 96.669 478.662 95.9754C483.65 94.6668 487.146 90.1999 487.146 84.6556C487.146 80.6511 485.315 77.0328 482.319 75.0305C479.323 73.3358 476.497 72.7197 467.348 72.7197H462.859V96.8216ZM538.54 3.33965C552.478 3.4934 563.104 3.72346 570.111 3.72346C576.965 3.72346 587.438 3.4934 601.067 3.33852V30.8299L592.906 30.445V80.6512C592.906 87.659 593.213 89.9687 594.753 92.5108C596.601 95.6679 601.222 97.2841 606.689 97.2841C611.848 97.2841 616.391 95.513 618.316 92.357C620.011 89.9687 620.396 87.659 620.396 80.6512V30.445L612.002 30.8299V3.33852C622.167 3.4934 629.636 3.72346 634.641 3.72346C639.493 3.72346 646.269 3.4934 655.433 3.33852V30.8299L647.116 30.445V77.879C647.116 94.3581 643.112 103.984 633.333 112.455C623.707 120.617 611.232 124.929 596.909 124.929C582.741 124.929 570.265 120.617 560.64 112.455C551.015 103.984 547.01 94.3581 547.01 77.879V30.445L538.54 30.8299V3.33965ZM732.823 3.33965H760.082C759.774 14.1196 759.543 19.2789 759.543 25.1307V37.9141L732.591 38.0678C730.282 27.8266 725.122 22.9748 716.96 22.9748C710.877 22.9748 705.716 27.2879 705.716 32.2923C705.716 33.7558 706.179 35.4494 707.18 36.6054C708.336 38.0678 709.49 39.3001 711.184 40.1475C712.185 40.6088 713.648 41.3024 715.805 42.611L723.12 45.9218C725.661 47.2316 728.433 48.3865 731.59 50.0812C742.602 55.0868 743.603 55.5481 748.07 58.2428C760.236 65.2506 766.397 75.0305 766.397 88.3526C766.397 110.606 748.762 125.392 721.964 125.392C716.806 125.392 711.493 124.929 706.487 123.621C699.711 122.08 696.707 120.771 690.239 115.765V122.927H662.748C662.979 112.147 663.287 106.988 663.287 101.289C663.287 97.2841 663.287 91.6634 662.979 84.0395H690.701C691.702 89.3537 692.703 91.3548 695.399 94.1269C698.863 97.8239 704.33 100.134 709.876 100.134C714.958 100.134 719.192 96.669 719.192 92.3559C719.192 87.6589 714.649 84.0395 701.019 78.0339C696.707 76.0317 693.859 74.723 692.857 74.1832L684.233 69.8712C679.921 67.7152 676.07 65.713 673.452 63.7096C664.596 58.2439 659.437 48.079 659.437 36.7592C659.437 15.5057 675.916 0.875 700.327 0.875C704.87 0.875 709.336 1.18254 714.034 2.18365C721.503 3.33965 724.66 4.49451 732.822 8.19034L732.823 3.33965Z" fill="white"/>
</svg>
